<?xml version="1.0" standalone="no"?>
<!DOCTYPE svg PUBLIC "-//W3C//DTD SVG 20010904//EN"
 "http://www.w3.org/TR/2001/REC-SVG-20010904/DTD/svg10.dtd">
<svg version="1.0" xmlns="http://www.w3.org/2000/svg"
 width="960.000000pt" height="1280.000000pt" viewBox="0 0 960.000000 1280.000000"
 preserveAspectRatio="xMidYMid meet">
<metadata>
Created by potrace 1.15, written by Peter Selinger 2001-2017
</metadata>
<g transform="translate(0.000000,1280.000000) scale(0.100000,-0.100000)"
fill="#ff5349" stroke="none">
<path d="M4490 12761 c-356 -201 -568 -483 -660 -876 -53 -224 -54 -254 -55
-1100 0 -699 -2 -804 -18 -914 -21 -147 -60 -336 -88 -428 l-21 -67 -39 95
c-143 341 -334 638 -548 849 -237 235 -459 340 -723 344 -64 0 -120 -2 -123
-6 -7 -7 57 -107 305 -473 131 -193 218 -360 269 -515 158 -487 182 -1162 70
-1950 -11 -80 -22 -146 -24 -148 -1 -2 -69 47 -151 109 -616 463 -1220 743
-1653 766 l-104 6 143 -279 c399 -775 472 -942 550 -1254 52 -205 63 -298 64
-510 0 -159 -5 -219 -23 -325 -22 -126 -84 -362 -99 -377 -4 -4 -48 8 -97 27
-323 127 -830 269 -1160 324 -136 23 -297 43 -303 37 -2 -3 31 -66 73 -141
218 -386 388 -842 515 -1385 61 -258 110 -521 219 -1176 135 -809 173 -1000
266 -1324 51 -177 108 -343 166 -479 390 -915 1111 -1411 2287 -1575 135 -19
132 -19 132 -3 0 9 121 12 570 12 314 0 570 -3 570 -7 0 -3 -6 -9 -13 -12 -16
-8 410 2 643 15 1420 77 2098 392 2607 1210 157 253 344 649 434 919 26 80 80
267 119 415 146 550 211 724 532 1425 232 506 329 764 407 1080 31 126 71 323
71 349 0 7 -28 -13 -63 -46 -160 -150 -401 -279 -703 -377 -114 -37 -345 -98
-351 -92 -2 2 6 59 17 127 30 186 57 432 71 637 15 235 7 782 -15 939 -73 543
-219 906 -460 1147 -52 52 -139 123 -181 148 -8 5 -10 -110 -7 -375 4 -407 -6
-567 -48 -757 -62 -278 -185 -447 -352 -484 l-28 -6 0 397 c-1 869 -49 1434
-165 1938 -210 904 -626 1454 -1265 1670 -36 12 -77 25 -91 28 l-27 7 13 -68
c19 -94 52 -210 92 -321 74 -206 128 -486 121 -636 -4 -97 -22 -144 -64 -172
-21 -14 -23 -11 -59 99 -54 163 -135 345 -217 488 -79 138 -112 189 -299 460
-282 410 -425 677 -569 1065 -136 366 -266 893 -351 1423 -13 80 -28 142 -34
141 -5 -1 -39 -18 -75 -38z"/>
</g>
</svg>
